<?xml version="1.0" encoding="utf-8"?>
<!-- Generator: Adobe Illustrator 24.3.0, SVG Export Plug-In . SVG Version: 6.00 Build 0)  -->
<svg version="1.1" id="Layer_1" xmlns="http://www.w3.org/2000/svg" xmlns:xlink="http://www.w3.org/1999/xlink" x="0px" y="0px"
	 viewBox="0 0 1280 720" style="enable-background:new 0 0 1280 720;" xml:space="preserve">
<style type="text/css">
	.st0{fill:#21B7AC;}
	.st1{fill:#222121;}
	.st2{fill:#FDFDFD;}
	.st3{fill:#231F20;}
	.st4{font-family:'Lato-Bold';}
	.st5{font-size:62.2863px;}
	.st6{letter-spacing:18.57;}
</style>
<g>
	<path class="st0" d="M396.66,353.78c0,67.3-54.56,121.86-121.86,121.86s-121.86-54.56-121.86-121.86
		c0-67.3,54.56-121.86,121.86-121.86S396.66,286.48,396.66,353.78"/>
	<path class="st1" d="M343.16,420.73c-2.38,0-4.76,0.02-7.14-0.01c-6.7-0.08-9.91-2.89-9.92-9.51c-0.02-7.16-1.06-6.27-6.63-6.28
		c-30.08-0.02-60.16-0.01-90.24,0c-5.43,0-5.43,0.02-5.57,5.37c-0.2,7.58-3.04,10.39-10.6,10.42c-4.89,0.02-9.78,0.04-14.66-0.01
		c-5.86-0.05-9.09-3.13-9.25-9c-0.14-5.26-0.06-10.53-0.03-15.79c0.01-1.95-0.42-3.6-1.77-5.15c-10.97-12.54-12.39-29.01-3.62-43.11
		c1.69-2.71,1.94-3.84-1.84-3.76c-3.59,0.08-5.85-1.86-6.57-5.47c-0.83-4.18-1.8-8.33-2.52-12.53c-0.72-4.2,1.17-6.55,5.43-6.68
		c4.88-0.15,9.79-0.27,14.66,0.01c3.66,0.2,5.43-1.37,6.67-4.61c2.79-7.26,6.23-14.18,11-20.44c4.77-6.25,11.5-9.18,18.55-11.46
		c10.28-3.34,20.88-5,31.69-5.84c18.78-1.45,37.2,0.02,55.52,4.43c15.28,3.68,25.54,12.6,31.25,27.06c0.46,1.17,1.18,2.26,1.44,3.47
		c1.36,6.46,5.48,8.16,11.58,7.41c3.58-0.44,7.26-0.17,10.89-0.03c4.26,0.17,6.13,2.48,5.43,6.69c-0.64,3.83-1.46,7.63-2.27,11.43
		c-1.06,4.99-2.47,6.29-7.59,6.59c-2.74,0.16-3.28,0.68-1.68,3.26c9.36,15.05,8.2,30.65-3.21,44.47c-1.22,1.48-1.59,3.05-1.58,4.85
		c0.02,4.89,0.06,9.78-0.02,14.66c-0.11,6.37-3.24,9.48-9.48,9.54C348.43,420.75,345.79,420.73,343.16,420.73"/>
	<path class="st2" d="M274.83,327.29c-19.78,0-39.57-0.07-59.35,0.07c-3.48,0.03-4.04-0.76-2.65-3.91
		c2.02-4.57,3.98-9.16,6.12-13.69c2.75-5.81,7.19-9.4,13.13-11.54c9.38-3.39,19.1-5.04,28.99-5.72c17.19-1.18,34.22-0.47,51.04,3.89
		c10.1,2.61,17.3,8,20.85,17.98c1.05,2.94,2.46,5.75,3.59,8.66c1.65,4.23,1.6,4.26-2.75,4.26c-14.15,0.01-28.3,0-42.44,0
		C285.85,327.29,280.34,327.29,274.83,327.29"/>
	<path class="st2" d="M333.17,384.1c-8.56,0.08-15.43-6.56-15.53-15.02c-0.11-8.69,6.7-15.61,15.35-15.61
		c8.62,0,15.24,6.71,15.45,15.64C348.62,377.02,341.49,384.02,333.17,384.1"/>
	<path class="st2" d="M232.21,368.7c0.05,8.53-6.62,15.3-15.16,15.39c-8.66,0.09-15.69-6.84-15.61-15.39
		c0.07-8.44,6.94-15.23,15.42-15.23C225.38,353.46,232.17,360.2,232.21,368.7"/>
	<path class="st1" d="M516.26,388.12c1.55,0,2.86,0.56,3.91,1.68l11.09,11.83c-5.47,6.96-12.25,12.24-20.36,15.84
		c-8.11,3.6-17.75,5.4-28.93,5.4c-10.13,0-19.23-1.72-27.3-5.17c-8.08-3.45-14.94-8.24-20.59-14.39c-5.65-6.15-10-13.45-13.04-21.9
		c-3.04-8.45-4.57-17.67-4.57-27.67c0-6.71,0.73-13.09,2.19-19.15c1.46-6.06,3.59-11.63,6.38-16.72c2.8-5.09,6.16-9.69,10.11-13.79
		c3.94-4.1,8.4-7.59,13.37-10.48c4.97-2.89,10.39-5.09,16.26-6.61c5.87-1.52,12.13-2.28,18.77-2.28c4.97,0,9.67,0.44,14.12,1.3
		c4.44,0.87,8.59,2.08,12.44,3.63c3.85,1.55,7.41,3.43,10.67,5.64c3.26,2.21,6.2,4.61,8.8,7.22l-9.41,12.86
		c-0.56,0.81-1.27,1.52-2.14,2.14c-0.87,0.62-2.05,0.93-3.54,0.93c-1.49,0-3-0.53-4.52-1.59c-1.52-1.05-3.39-2.24-5.59-3.54
		c-2.21-1.3-4.97-2.48-8.29-3.54c-3.32-1.06-7.53-1.59-12.62-1.59c-5.65,0-10.84,1.03-15.56,3.08c-4.72,2.05-8.77,5.02-12.16,8.9
		c-3.39,3.88-6.01,8.65-7.87,14.3c-1.86,5.65-2.8,12.08-2.8,19.29c0,7.27,1.01,13.74,3.03,19.43c2.02,5.68,4.78,10.48,8.29,14.39
		c3.51,3.91,7.61,6.88,12.3,8.9c4.69,2.02,9.7,3.03,15.05,3.03c3.17,0,6.04-0.15,8.62-0.47c2.58-0.31,4.97-0.84,7.17-1.58
		c2.2-0.75,4.29-1.71,6.24-2.89c1.96-1.18,3.93-2.67,5.92-4.47c0.68-0.56,1.4-1.03,2.14-1.4
		C514.59,388.3,515.39,388.12,516.26,388.12"/>
	<path class="st1" d="M616.89,370.04L616.89,370.04l-14.63-41.37c-0.87-2.17-1.79-4.72-2.75-7.64c-0.96-2.92-1.88-6.09-2.75-9.5
		c-0.87,3.48-1.79,6.69-2.75,9.64c-0.96,2.95-1.88,5.51-2.75,7.69l-14.53,41.18H616.89z M663.84,421.38h-21.71
		c-2.42,0-4.4-0.57-5.92-1.72c-1.52-1.15-2.66-2.62-3.4-4.43l-9.13-25.81h-53.85l-9.13,25.81c-0.62,1.55-1.71,2.97-3.26,4.24
		c-1.55,1.27-3.51,1.91-5.87,1.91h-21.9l52.83-135.19h28.6L663.84,421.38z"/>
	<path class="st1" d="M717.14,350.2L717.14,350.2c4.53,0,8.45-0.57,11.74-1.72c3.29-1.15,5.99-2.73,8.11-4.75
		c2.11-2.02,3.66-4.39,4.66-7.13c0.99-2.73,1.49-5.71,1.49-8.94c0-6.4-2.13-11.37-6.38-14.91c-4.25-3.54-10.73-5.31-19.43-5.31
		h-14.53v42.77H717.14z M782.63,421.38h-25.25c-4.72,0-8.14-1.8-10.25-5.4l-25.71-41.46c-1.06-1.61-2.22-2.8-3.49-3.54
		c-1.27-0.74-3.15-1.12-5.64-1.12h-9.5v51.52h-27.95V286.19h42.49c9.44,0,17.52,0.98,24.22,2.93c6.71,1.96,12.21,4.67,16.49,8.15
		c4.29,3.48,7.42,7.62,9.41,12.44c1.99,4.81,2.98,10.11,2.98,15.89c0,4.47-0.64,8.71-1.91,12.72c-1.27,4.01-3.12,7.66-5.54,10.95
		c-2.42,3.29-5.4,6.21-8.94,8.76c-3.54,2.55-7.58,4.6-12.11,6.15c1.8,0.99,3.48,2.19,5.03,3.59c1.55,1.4,2.95,3.06,4.19,4.99
		L782.63,421.38z"/>
	<path class="st1" d="M867.6,312.09c-0.87,1.43-1.76,2.47-2.66,3.12c-0.9,0.65-2.07,0.98-3.49,0.98c-1.37,0-2.84-0.48-4.43-1.44
		c-1.58-0.96-3.43-2-5.54-3.12c-2.11-1.12-4.54-2.16-7.27-3.12c-2.73-0.96-5.93-1.44-9.6-1.44c-6.46,0-11.31,1.44-14.53,4.33
		c-3.23,2.89-4.85,6.66-4.85,11.32c0,2.98,0.89,5.45,2.66,7.41c1.77,1.96,4.1,3.65,6.99,5.08c2.89,1.43,6.17,2.7,9.83,3.82
		c3.66,1.12,7.42,2.35,11.27,3.68c3.85,1.34,7.61,2.9,11.27,4.7c3.67,1.8,6.94,4.07,9.83,6.8c2.89,2.73,5.22,6.07,6.99,10.02
		c1.77,3.94,2.66,8.74,2.66,14.39c0,6.15-1.07,11.91-3.21,17.28c-2.14,5.37-5.23,10.06-9.27,14.07c-4.04,4.01-9.02,7.16-14.95,9.46
		c-5.93,2.3-12.66,3.45-20.17,3.45c-4.29,0-8.56-0.44-12.81-1.3c-4.26-0.87-8.35-2.08-12.3-3.63c-3.94-1.55-7.66-3.42-11.13-5.59
		c-3.48-2.17-6.52-4.6-9.13-7.27l8.2-13.23c0.68-0.99,1.58-1.82,2.7-2.47c1.12-0.65,2.3-0.98,3.54-0.98c1.68,0,3.45,0.62,5.31,1.86
		c1.86,1.24,4.01,2.61,6.43,4.1c2.42,1.49,5.23,2.86,8.43,4.1c3.2,1.24,7.03,1.86,11.51,1.86c6.52,0,11.57-1.49,15.14-4.47
		c3.57-2.98,5.36-7.42,5.36-13.32c0-3.41-0.89-6.18-2.66-8.29c-1.77-2.11-4.08-3.88-6.94-5.31c-2.86-1.43-6.12-2.66-9.78-3.68
		c-3.66-1.02-7.42-2.16-11.27-3.4c-3.85-1.24-7.61-2.73-11.27-4.47c-3.66-1.74-6.93-4.04-9.78-6.89c-2.86-2.86-5.17-6.4-6.94-10.62
		c-1.77-4.22-2.65-9.47-2.65-15.75c0-5.03,0.99-9.91,2.98-14.63c1.99-4.72,4.91-8.91,8.76-12.58c3.85-3.66,8.59-6.61,14.21-8.85
		c5.62-2.24,12.06-3.35,19.33-3.35c8.14,0,15.67,1.26,22.59,3.77c6.93,2.52,12.78,6.01,17.56,10.48L867.6,312.09z"/>
	<path class="st0" d="M946.98,369.76L946.98,369.76v-40.25c0-2.11,0.08-4.36,0.23-6.75c0.15-2.39,0.39-4.89,0.7-7.5l-39.13,54.5
		H946.98z M985,369.76v14.53c0,1.37-0.45,2.53-1.35,3.49c-0.9,0.96-2.16,1.45-3.77,1.45h-10.53v32.14h-22.36v-32.14h-55.81
		c-1.62,0-3.09-0.5-4.42-1.49c-1.34-0.99-2.16-2.3-2.47-3.91l-2.7-12.86l63.36-84.88h24.41v83.67H985z"/>
	<path class="st0" d="M1019.93,334.64c2.79-0.56,5.48-0.96,8.06-1.21c2.58-0.25,5.08-0.37,7.5-0.37c7.08,0,13.34,1.07,18.77,3.22
		c5.43,2.14,10,5.08,13.7,8.8c3.7,3.73,6.48,8.11,8.34,13.14c1.86,5.03,2.8,10.43,2.8,16.21c0,7.21-1.27,13.77-3.82,19.71
		c-2.55,5.93-6.07,11.02-10.57,15.28c-4.5,4.26-9.87,7.56-16.12,9.92c-6.24,2.36-13.06,3.54-20.45,3.54c-4.29,0-8.38-0.45-12.3-1.35
		c-3.91-0.9-7.56-2.11-10.95-3.63c-3.39-1.52-6.54-3.28-9.46-5.26c-2.92-1.99-5.53-4.07-7.83-6.24l7.92-10.81
		c1.68-2.3,3.85-3.45,6.52-3.45c1.68,0,3.32,0.5,4.94,1.49c1.61,0.99,3.45,2.1,5.5,3.31c2.05,1.21,4.44,2.31,7.18,3.31
		c2.73,0.99,6.05,1.49,9.97,1.49c4.04,0,7.55-0.67,10.53-2c2.98-1.34,5.45-3.17,7.41-5.5c1.96-2.33,3.42-5.09,4.38-8.29
		c0.96-3.2,1.45-6.63,1.45-10.29c0-7.02-2-12.44-6.01-16.26c-4.01-3.82-9.83-5.73-17.47-5.73c-6.27,0-12.58,1.18-18.91,3.54
		l-15.93-4.47l11.37-66.52h67.83V297c0,1.8-0.27,3.43-0.79,4.89c-0.53,1.46-1.4,2.73-2.61,3.82c-1.21,1.09-2.76,1.93-4.66,2.52
		c-1.9,0.59-4.21,0.89-6.94,0.89h-34.94L1019.93,334.64z"/>
	<path class="st0" d="M1105.43,401.25c6.86,0,12.42,5.56,12.42,12.42c0,6.86-5.56,12.42-12.42,12.42c-6.86,0-12.42-5.56-12.42-12.42
		C1093.01,406.81,1098.57,401.25,1105.43,401.25"/>
	<path class="st1" d="M1098.68,370.56c0.34,0.28,0.61,0.55,0.81,0.81c0.2,0.26,0.3,0.63,0.3,1.1c0,0.46-0.11,0.87-0.33,1.24
		c-0.22,0.37-0.46,0.78-0.73,1.24c-0.27,0.46-0.51,0.99-0.73,1.61c-0.22,0.62-0.33,1.38-0.33,2.3c0,1.13,0.21,2.11,0.63,2.94
		c0.42,0.83,1.01,1.51,1.79,2.04c0.77,0.54,1.73,0.94,2.85,1.19c1.12,0.26,2.39,0.39,3.8,0.39c2.96,0,5.24-0.57,6.83-1.72
		c1.59-1.14,2.39-2.72,2.39-4.73c0-1.07-0.13-1.92-0.4-2.55c-0.27-0.63-0.57-1.16-0.89-1.59c-0.33-0.44-0.63-0.84-0.91-1.21
		c-0.28-0.37-0.42-0.83-0.42-1.39c0-0.73,0.27-1.29,0.8-1.67l3.31-2.68c1.09,0.95,1.98,1.96,2.67,3.01
		c0.69,1.05,1.22,2.13,1.61,3.24c0.39,1.1,0.66,2.21,0.81,3.33c0.15,1.11,0.22,2.2,0.22,3.25c0,1.89-0.36,3.69-1.07,5.41
		c-0.72,1.72-1.76,3.23-3.12,4.53c-1.36,1.3-3.04,2.34-5.03,3.1c-1.99,0.77-4.26,1.15-6.8,1.15c-2.23,0-4.31-0.33-6.25-1
		c-1.94-0.67-3.62-1.65-5.04-2.95c-1.42-1.3-2.54-2.91-3.36-4.83c-0.82-1.92-1.22-4.14-1.22-6.67c0-2.43,0.39-4.55,1.16-6.38
		c0.78-1.83,1.91-3.48,3.4-4.95L1098.68,370.56z"/>
	<path class="st1" d="M1115.9,350.55L1115.9,350.55c0-2.13-0.75-3.69-2.25-4.7c-1.5-1-3.78-1.51-6.85-1.51
		c-3.06,0-5.34,0.5-6.83,1.51c-1.49,1-2.24,2.57-2.24,4.7c0,2.19,0.75,3.79,2.24,4.8c1.49,1.01,3.77,1.52,6.83,1.52
		c3.06,0,5.34-0.51,6.85-1.52C1115.15,354.33,1115.9,352.73,1115.9,350.55 M1090.87,350.55c0-2.35,0.37-4.49,1.1-6.41
		c0.74-1.93,1.79-3.59,3.16-4.97c1.37-1.38,3.04-2.46,5-3.22c1.96-0.77,4.16-1.15,6.61-1.15c2.47,0,4.69,0.38,6.67,1.15
		c1.98,0.77,3.66,1.84,5.04,3.22c1.38,1.38,2.45,3.04,3.19,4.97c0.74,1.93,1.12,4.07,1.12,6.41c0,2.37-0.37,4.52-1.12,6.46
		c-0.75,1.94-1.81,3.61-3.19,5.01c-1.38,1.4-3.06,2.49-5.04,3.25c-1.98,0.77-4.2,1.15-6.67,1.15c-2.45,0-4.65-0.38-6.61-1.15
		c-1.96-0.77-3.62-1.85-5-3.25c-1.37-1.4-2.43-3.07-3.16-5.01C1091.24,355.07,1090.87,352.91,1090.87,350.55z"/>
	<path class="st1" d="M1122.28,330.14h-30.93v-5.73c0-1.15,0.52-1.91,1.55-2.27l1.67-0.51c-0.54-0.52-1.03-1.05-1.48-1.61
		c-0.45-0.56-0.84-1.16-1.16-1.8c-0.33-0.65-0.59-1.34-0.78-2.09c-0.19-0.75-0.28-1.57-0.28-2.46c0-1.87,0.48-3.42,1.45-4.64
		c0.96-1.22,2.25-2.15,3.86-2.79c-0.95-0.52-1.77-1.15-2.45-1.89c-0.68-0.75-1.22-1.55-1.64-2.42c-0.42-0.87-0.73-1.78-0.93-2.74
		c-0.2-0.96-0.3-1.92-0.3-2.88c0-1.77,0.26-3.34,0.79-4.71c0.53-1.37,1.29-2.52,2.3-3.45c1-0.93,2.24-1.63,3.7-2.1
		c1.46-0.48,3.12-0.72,4.97-0.72h19.66v9.25h-19.66c-3.2,0-4.8,1.37-4.8,4.12c0,1.25,0.41,2.29,1.24,3.12
		c0.83,0.83,2.01,1.24,3.56,1.24h19.66v9.25h-19.66c-1.77,0-3.01,0.35-3.73,1.04c-0.72,0.7-1.07,1.72-1.07,3.07
		c0,0.83,0.19,1.63,0.57,2.37c0.38,0.74,0.89,1.45,1.52,2.1h22.37V330.14z"/>
	<text transform="matrix(0.9153 0 0 1 434.0029 476.752)" class="st3 st4 st5 st6">Buy   Sell   Swap</text>
	<circle class="st1" cx="415.28" cy="456.95" r="9.18"/>
	<circle class="st1" cx="646.29" cy="456.95" r="9.18"/>
	<circle class="st1" cx="897.1" cy="456.76" r="9.18"/>
</g>
</svg>
